<svg id="레이어_1" data-name="레이어 1" xmlns="http://www.w3.org/2000/svg" viewBox="0 0 100 96.3"><defs><style>.cls-1{fill:#e04329;}.cls-2{fill:#fa6d26;}.cls-3{fill:#faa126;}</style></defs><path class="cls-1" d="M98.33,38.12l-.13-.36L84.59,2.26a3.6,3.6,0,0,0-6.37-.6,3.45,3.45,0,0,0-.43,1L68.6,30.75H31.4L22.21,2.62A3.6,3.6,0,0,0,17.77.14a3.55,3.55,0,0,0-.95.43,3.46,3.46,0,0,0-1.4,1.69L1.81,37.76l-.14.36a25.27,25.27,0,0,0,8.39,29.2l0,0,.11.09L30.93,83,41.2,90.72l6.24,4.72a4.2,4.2,0,0,0,5.08,0l6.24-4.72L69,83l20.85-15.6.06,0A25.25,25.25,0,0,0,98.33,38.12Z"/><path class="cls-2" d="M98.33,38.12l-.13-.36A45.91,45.91,0,0,0,79.9,46L50,68.58,69.05,83,89.9,67.36l0,0A25.25,25.25,0,0,0,98.33,38.12Z"/><path class="cls-3" d="M30.93,83,41.2,90.72l6.24,4.72a4.2,4.2,0,0,0,5.08,0l6.24-4.72L69,83,50,68.58Z"/><path class="cls-2" d="M20.1,46A45.81,45.81,0,0,0,1.81,37.76l-.14.36a25.27,25.27,0,0,0,8.39,29.2l0,0,.11.09L30.93,83,50,68.58Z"/></svg>