<svg id="레이어_1" data-name="레이어 1" xmlns="http://www.w3.org/2000/svg" viewBox="0 0 100 101.68"><defs><style>.cls-1{fill:#020a47;fill-rule:evenodd;}</style></defs><path class="cls-1" d="M74.28,70.16l23.58-5.41a2.67,2.67,0,0,0,1-.43A2.68,2.68,0,0,0,100,62.47a2.68,2.68,0,0,0-.09-1.09l-10-43.49a2.78,2.78,0,0,0-3.39-2L62.91,21.27a2.78,2.78,0,0,0-2,3.37l10,43.49a2.78,2.78,0,0,0,3.38,2Z"/><path class="cls-1" d="M66.16,97,94.74,70.57c1.08-1.09.81-1.76-.68-1.23L74.42,73.81A5,5,0,0,0,72.24,75a4.92,4.92,0,0,0-1.34,2.07l-6,19.18C64.53,97.71,65.07,98.12,66.16,97Z"/><path class="cls-1" d="M14,88.4l42.81,13.22a3.13,3.13,0,0,0,3.52-2l7.18-23a2.92,2.92,0,0,0,.09-1.1,2.85,2.85,0,0,0-.33-1.06,2.9,2.9,0,0,0-.72-.84,2.71,2.71,0,0,0-1-.51L22.76,60A2.84,2.84,0,0,0,19.24,62L12.11,84.88A2.86,2.86,0,0,0,14,88.4Z"/><path class="cls-1" d="M.18,41.39l8.68,38c.27,1.48,1,1.48,1.35,0l6-19.18a5.37,5.37,0,0,0,0-2.49,5.2,5.2,0,0,0-1.1-2.23L1.41,40.71C.45,39.6-.25,39.91.18,41.39Z"/><path class="cls-1" d="M33.65.78.86,31.13A2.77,2.77,0,0,0,.73,35L17.12,52.74a2.78,2.78,0,0,0,3.93.13L53.83,22.48A2.75,2.75,0,0,0,54,18.6L37.6.88a2.7,2.7,0,0,0-.89-.64A2.78,2.78,0,0,0,35.65,0a2.83,2.83,0,0,0-1.08.19A2.73,2.73,0,0,0,33.65.78Z"/><path class="cls-1" d="M65.34,69.48c1.5.41,2.44-.4,2-1.94L57.9,26.49c-.41-1.49-1.63-1.9-2.71-.82L24.3,54.36c-1.08,1.08-.81,2.29.67,2.7Z"/><path class="cls-1" d="M81.47,12.22,44.08.78c-1.49-.41-1.76.13-.55,1.35L57.22,16.85a5.34,5.34,0,0,0,2.16,1.22,5.24,5.24,0,0,0,2.49.09l19.64-4.45C83,13.3,83,12.62,81.47,12.22Z"/></svg>