<svg xmlns="http://www.w3.org/2000/svg" viewBox="0 0 1256.99 305.03"><defs><style>.cls-1{fill:#c42917;}.cls-2{fill:#53585f;}</style></defs><g id="레이어_2" data-name="레이어 2"><g id="logo_red" data-name="logo red"><path class="cls-1" d="M391.8,127a78,78,0,0,1,40.79,11.32,72.41,72.41,0,0,1,28.66,32.17A105.94,105.94,0,0,1,471,216.09q0,35.76-18.15,59.83Q431,305,392.34,305q-37.92,0-58.4-26.59t-20.48-61.63q0-36.12,20.93-63T391.8,127Zm.72,12.76a20.94,20.94,0,0,0-15.73,6.92q-6.56,6.92-8.62,27.31t-2.07,56.69a241.35,241.35,0,0,0,2.52,35.94q2,12.76,8.44,19.4t14.74,6.65a20.33,20.33,0,0,0,13.48-4.49q7-6.11,9.34-17.07,3.58-17.07,3.59-69,0-30.54-3.41-42t-10.06-16.62Q400.06,139.72,392.52,139.72Z"/><path class="cls-2" d="M647.85,170.81q34.68,8.08,48.7,19.58,20.12,16.35,20.12,42.41,0,27.49-22.1,45.46Q667.44,300,615.69,300H491.88v-6.65q16.89,0,22.91-3.14a18.34,18.34,0,0,0,8.45-8.18q2.43-5,2.43-24.8V99.11q0-19.77-2.43-24.89a17.76,17.76,0,0,0-8.54-8.17Q508.6,63,491.88,63V56.35h116.8q41.87,0,59.3,7.45a61.72,61.72,0,0,1,27.49,22.28q10.06,14.83,10.06,31.54,0,17.61-12.76,31.35T647.85,170.81ZM582.45,180v78.16l-.18,9q0,9.7,4.94,14.64t14.64,4.94a56,56,0,0,0,26.51-6.38A43.67,43.67,0,0,0,647,261.82a56.49,56.49,0,0,0,6.47-27,59.68,59.68,0,0,0-7.9-30.63,42.6,42.6,0,0,0-21.75-19Q609.94,179.8,582.45,180Zm0-14q25.5,0,37.64-5.75A42.76,42.76,0,0,0,638.69,144q6.46-10.41,6.47-26.59t-6.38-26.51a40.61,40.61,0,0,0-18.24-15.72Q608.67,69.83,582.45,70Z"/><path class="cls-2" d="M827.36,189v68.28q0,19.77,2.43,24.89a17.71,17.71,0,0,0,8.53,8.18q6.1,3.06,22.82,3.05V300H736.44v-6.65q16.89,0,22.91-3.14a18.32,18.32,0,0,0,8.44-8.18q2.43-5,2.43-24.8V99.11q0-19.77-2.43-24.89a17.74,17.74,0,0,0-8.53-8.17Q753.14,63,736.44,63V56.35h113.2q44.21,0,64.69,6.1A65.21,65.21,0,0,1,947.75,85q12.93,16.44,12.94,38.54,0,27-19.41,44.56-12.39,11.14-34.68,16.71l58.58,82.48q11.49,16,16.35,19.94a30.39,30.39,0,0,0,17.07,6.11V300H921.87L843.35,189Zm0-119.49V176.2H837.6q25,0,37.38-4.59a37.19,37.19,0,0,0,19.49-16.53q7.1-11.94,7.1-31.17,0-27.85-13-41.15t-41.95-13.3Z"/><path class="cls-1" d="M1148.46,230.64h-86.07l-10.24,23.72q-5,11.86-5,19.59,0,10.23,8.26,15.09,4.86,2.88,23.9,4.31V300h-81v-6.65a36.22,36.22,0,0,0,21.56-10.87q8.45-8.89,20.85-36.75L1127.8,51.31h3.41l87.87,199.82q12.57,28.38,20.66,35.75,6.1,5.58,17.25,6.47V300H1139.12v-6.65H1144q14.19,0,19.94-4a9.6,9.6,0,0,0,4-8.27,22,22,0,0,0-1.08-6.65q-.36-1.61-5.39-13.47Zm-6.11-13.3-36.3-83.91-37.37,83.91Z"/><rect class="cls-1" width="78" height="300"/><circle class="cls-1" cx="271.66" cy="261.47" r="20"/><circle class="cls-2" cx="266.66" cy="39.03" r="15"/><circle class="cls-1" cx="313.67" cy="39.03" r="20"/><circle class="cls-2" cx="378.19" cy="39.03" r="32.5"/><path class="cls-1" d="M239.66,225a75,75,0,0,1-74.32-65H90A150,150,0,0,0,239.66,300h.17V225Z"/><path class="cls-1" d="M239.66,0A150,150,0,0,0,90,140h75.34a75,75,0,0,1,74.32-65h.17V0Z"/></g></g></svg>